<svg id="Capa_1" data-name="Capa 1" xmlns="http://www.w3.org/2000/svg" viewBox="0 0 695.73 97.42"><defs><style>.cls-1{font-size:75.99px;fill:#fff;font-family:FugazOne-Regular, Fugaz One;}.cls-2,.cls-3{fill:#454545;}.cls-3{fill-rule:evenodd;}</style></defs><title>LOGOKMI</title><text class="cls-1" transform="translate(1.97 65.35)">ARGENTINIZADOS</text><g id="_8k0CIT.tif" data-name="8k0CIT.tif"><path class="cls-2" d="M698.3,66.5c2.09,0,4.18-.12,6.26-.32.79-.08,1,.16,1,.88.4,4.91.85,9.82,1.24,14.74q.69,9.06,1.32,18.13c.15,2.08.27,4.17.4,6.18-.21.12-.27.19-.34.2-5.83.51-11.66,1-17.49,1.54-.73.07-1-.23-1-.73,0,.83-.79.83-1.35.89-1.6.18-3.21.19-4.81.34q-11.35,1.08-22.71,2.19-5.65.55-11.31,1.15c-1.33.13-2.65.31-4.07.48-1.34-13.49-2.66-26.72-4-40l48.29-4.68c0-.11,0-.22,0-.32l-4.82.58-.86-1-.57.07.61.74-2,.13c0-.25.06-.48.09-.72l-.54.07a1.08,1.08,0,0,1-.52,1l-.4-.1c0-.27.09-.53.14-.8l-.48.06-.55.78-.63-.64-.56.07.56.74h-1.76l0-.6-.48.06a.88.88,0,0,1-.18.43c-.3.35-.91.43-1.65.75.16-.42.28-.74.37-1l-1,.12c0,.25.11.51.16.79L641,71.58c.15,1.27.34,2.52.45,3.78.54,6.06,1,12.11,1.59,18.16.56,5.71,1.23,11.41,1.84,17.12.22,2,.19,2,2.21,1.81q6.82-.67,13.66-1.29,8.4-.76,16.78-1.49c2-.17,4-.3,6-.48,1.82-.16,3.64-.37,5.47-.53a2.35,2.35,0,0,1,.79.21,2.66,2.66,0,0,1,.78-.37c.92-.14,1.84-.24,2.77-.31q6.62-.52,13.22-1c.82-.06,1.63,0,2.45-.06,0-.84-.05-1.68-.1-2.51-.19-3.37-.32-6.75-.61-10.11-.59-7.08-1.25-14.16-1.93-21.24-.24-2.5-.59-5-.91-7.63Z" transform="translate(-13.36 -25)"/><path class="cls-3" d="M675,100.87c-3.24.26-6.48.48-9.71.8s-6.27.75-9.44,1.13c1,2.11,1,3.21.05,4.29,1,1.62.9,1.83-.81,2.39,0,.4-.09.79-.13,1.19h-.29c-.13-1-.25-2.06-.34-2.8.67-.58,1.32-.9,1.59-1.43s-.81-1.11-1.43-.52c-.24.23-.27.67-.4,1l-.47-.29c.11-.78.21-1.55.26-1.95l-1.51-1.07a.44.44,0,0,1,0-.1c.4-.48.79-1,1.19-1.46l.41.16c-.77-7.52-1.54-15-2.3-22.38l44.84-4c.19,1.58.43,3.21.58,4.85.48,5.25.93,10.49,1.39,15.74a5.4,5.4,0,0,1,0,.56c0,1.84,0,1.78-1.83,1.94-7.14.64-14.28,1.32-21.42,2ZM696.35,76l-44,4.31c.67,7.25,1.34,14.51,2,21.71l43.71-3.79C697.49,90.84,696.92,83.47,696.35,76Z" transform="translate(-13.36 -25)"/><path class="cls-3" d="M704.84,85a17.91,17.91,0,0,1,1.85,1c.14.09.17.6,0,.79a1.19,1.19,0,0,1-.76.51c-.27,0-.57-.16-.93-.28a3.35,3.35,0,0,1-1.15,3.09,1.39,1.39,0,0,0-.28.82c-.13.82-.55,1.29-1.28,1.28-1-1.1-2-2.11-2.89-3.19a9.46,9.46,0,0,1-.81-1.53c0,.47.05.74.07,1-.05,0-.15,0-.16,0-.47-1.5.39-2.68,1-3.87.26-.51.76-.79.41-1.52-.23-.49,0-.9.72-.65l1,.31c.37-.45.46-1.36,1.38-1.12.67.18.9,1.35.55,2.37-.29-.63-.58-1.25-.86-1.87-.69.54-.75,1.13-.09,1.72a3,3,0,0,1,.47.67l-.22.13a1.75,1.75,0,0,0-2.28-.51A2.81,2.81,0,0,0,699,86.79l1.25.75c.25.47.5.94.73,1.39l-.5-.24-.12.18,1.19.87c0-.37.06-.58.08-.76l1.21-.15c1.08-.12.71-1.12,1-1.7l-1.18-.37c0-.2.07-.41.11-.61.8.59,1.3.1,1.76-.5.35.42.7.85,1.1,1.32l.65-.71Z" transform="translate(-13.36 -25)"/><path class="cls-3" d="M652.47,78.65a5.25,5.25,0,0,1-1.21-.82c-.89-1.08-1.71-2.23-2.76-3.64.2,1.74.38,3.15.55,4.61-.74.29-1.18.3-1.21-.64-.06-1.75-.18-3.51-.29-5.59a4.27,4.27,0,0,1,1.19.65c1,1.12,1.89,2.3,3,3.6-.05-1.54-.5-3-.32-4.38l.72,0c.11.89.21,1.78.32,2.67l.39,3.21Z" transform="translate(-13.36 -25)"/><path class="cls-3" d="M646.12,88.24c0-.72-.07-1.17,0-1.62.11-1.65.12-1.65,1.79-1.88,1.18-.17,1.27,0,1,1.23l-1.75.31c0,.1,0,.21,0,.31a2.25,2.25,0,0,0,.56.09,1.75,1.75,0,0,1,2,1.42,1.79,1.79,0,0,1-.72,2.17,1.9,1.9,0,0,1-2.49-.19c-.27-.25-.3-.75-.44-1.14l1.15.23c.37.07.75.12,1.12.17,0-.42.23-1,0-1.23s-.76-.2-1.16-.18A5.21,5.21,0,0,0,646.12,88.24Z" transform="translate(-13.36 -25)"/><path class="cls-3" d="M646.83,96.47a11.94,11.94,0,0,1-.15-1.34,1.64,1.64,0,0,1,1.37-1.67c.87-.21,1.83-.1,2.07.84a11.81,11.81,0,0,1,.36,3.74,1.4,1.4,0,0,1-1.77,1.17c-.83-.12-1.64-.32-1.74-1.4,0-.44-.1-.89-.16-1.33Zm2.65,0c0-.43,0-.71-.07-.88a10.65,10.65,0,0,0-.86-1,3.91,3.91,0,0,0-.72,1.19,3.11,3.11,0,0,0,.15,1.66c.13.31.66.52,1,.59.13,0,.43-.51.52-.83A1.59,1.59,0,0,0,649.48,96.49Z" transform="translate(-13.36 -25)"/><path class="cls-3" d="M664.32,75.36c.56.59,1.12,1.17,1.77,1.87-2,.44-2-1.74-3.37-2.19.1.88.2,1.69.3,2.51l-.45.19c-.19-.31-.51-.61-.55-.94-.16-1.64-.25-3.28-.37-4.92,1.5-.6,3.17-.45,3.67.32C665.93,73.16,665.66,74,664.32,75.36Zm-2.23-2c.58.54,1,1.19,1.31,1.17.66,0,1.61-.36,1.31-1.27-.17-.52-.94-.91-1.52-1.19C663.08,72,662.59,72.76,662.09,73.36Z" transform="translate(-13.36 -25)"/><path class="cls-3" d="M672.44,70.81a2.51,2.51,0,0,1,3.23,1.75c.5,1.93-.26,3.48-1.94,3.93-2.09.56-2.34.41-2.64-1.69-.12-.82-.22-1.64-.31-2.46-.11-1.11.51-1.66,1.69-1.5-.32.42-.88.83-.91,1.26a16.5,16.5,0,0,0,.23,3.13.86.86,0,0,0,.48.63,2.29,2.29,0,1,0,.58-4.52C672.71,71.34,672.58,71,672.44,70.81Z" transform="translate(-13.36 -25)"/><path class="cls-3" d="M644.45,76.46c-.06,1.63-.07,1.6,1.49,1.5.35,0,.72.28,1.07.43-.31.24-.6.62-1,.68-2.24.34-2.28.25-2.4-2-.06-1.3-.29-2.59-.45-3.89l3-.37c.46.87,0,1-.67,1-.52,0-1.31-.22-1.3.79,0,.71,0,1.33,1,.9a1.59,1.59,0,0,1,.89-.07.7.7,0,0,1,.46.47.66.66,0,0,1-.43.49A16.49,16.49,0,0,1,644.45,76.46Z" transform="translate(-13.36 -25)"/><path class="cls-3" d="M658,78c-.25-2-.48-4-.72-5.91l3.07-.37c.34.78-.17.77-.69.8s-.88.1-1.57.18c.25.66.32,1.5.69,1.67s1.23-.08,1.87-.16c0,1-.1,1-2.1,1.06,0,.56.07,1.11.11,1.79a13.35,13.35,0,0,1,1.7-.18c.22,0,.43.26.65.4-.18.14-.34.38-.53.41C659.63,77.83,658.78,77.91,658,78Z" transform="translate(-13.36 -25)"/><path class="cls-3" d="M675,100.87h.22c.09.11.19.33.26.32,1.5-.13,1.56.89,1.65,1.95.06.78-.08,1.39-1,1.5s-1.51-.08-1.57-1.12a3.76,3.76,0,0,0-.24-.77l-2,2.1c-.1-.87-.23-1.94-.38-3.17l1.63-.28c.09.37.16.67.28,1.2Zm1.89,2.07c-.47-.45-.76-1-1.08-1-.8,0-.6.65-.59,1.14s.1,1.08.78.88C676.27,103.89,676.47,103.4,676.85,102.94Z" transform="translate(-13.36 -25)"/><path class="cls-3" d="M667.67,76.29l2.17-.26c.06,1,.06,1-2.79,1-.22-1.84-.44-3.69-.67-5.53l3-.36c0,.05,0,.09,0,.13-.63.21-1.42.25-1.83.67s-.1,1.09-.12,1.78l2.23-.27.23.3c-.23.2-.44.55-.69.58C667.45,74.55,667.45,74.53,667.67,76.29Z" transform="translate(-13.36 -25)"/><path class="cls-3" d="M667.38,109.87c-.54-.87-.9-1.45-1.4-2.24,0,.83,0,1.42,0,2l-.31,0a8.61,8.61,0,0,1-.52-3.31c.59,0,.59,0,2.05,1.83.52-.72.08-2.12,1.64-2.25.08,1.15.15,2.25.22,3.35l-.37,0c-.08-.63-.15-1.26-.23-1.89l-.3-.06C668,108.1,667.73,108.81,667.38,109.87Z" transform="translate(-13.36 -25)"/><path class="cls-3" d="M655.25,78.34c-.19-.29-.51-.56-.55-.87a29,29,0,0,1-.31-3.35c0-.8-.13-1.36-1.18-1a5.42,5.42,0,0,1,0-.62c1-.14,1.92-.25,2.88-.37,0,.28,0,.62-.13.83s-.46.15-.83.25c.2,1.66.39,3.28.59,4.9Z" transform="translate(-13.36 -25)"/><path class="cls-3" d="M652.35,103.51a.44.44,0,0,0,0,.1c-.75.78-.73,1.36.27,2,.81.53.66,1.15-.25,1.73l.07,0-1.11,0-.95-3.65v0a7.8,7.8,0,0,1,1.31-.8C651.81,102.89,652.12,103.31,652.35,103.51Z" transform="translate(-13.36 -25)"/><path class="cls-3" d="M652.42,107.31l-.07,0a1.33,1.33,0,0,1,1,1.39c0,.68.16,1.35.24,2l-.35.1a10.56,10.56,0,0,1-.27-1.11,3.59,3.59,0,0,0-.27-1.29c-.24.82-.49,1.64-.73,2.46l-.29.14c-.42-.7-.83-1.41-1.29-2.21,0,.86,0,1.59.06,2.32l-.4,0-.43-1.51v0c.05-.61.1-1.22.17-2,1.32,0,1,1.55,2,2.08C652,109,652.22,108.13,652.42,107.31Z" transform="translate(-13.36 -25)"/><path class="cls-3" d="M697.19,74.79c-.06-1-.11-2.08-.16-3.11,1.43-.58,2.94-.56,3.34.23a3,3,0,0,1,.18,2C700.32,74.73,698.86,75,697.19,74.79Zm1.33-.57c1.13-.12,1.75-.66,1.6-1.41-.2-1-1-1-1.77-1s-1,.53-.79,1.13S697.38,74.47,698.52,74.22Z" transform="translate(-13.36 -25)"/><path class="cls-3" d="M703.55,103.06c1.12-.12,2.27-.62,3,.46a2.22,2.22,0,0,1,.07,2c-.55.93-1.61.93-2.67.74Zm1,2.71c.72-.41,1.76-.18,1.63-1.24s-1-1.06-1.89-.9C704.33,104.3,704.41,104.91,704.51,105.77Z" transform="translate(-13.36 -25)"/><path class="cls-3" d="M682.76,104.49a11,11,0,0,1,2.15.88c.14.09-.23,1-.41,1.67.08.1.35.39.62.69l-.19.27-1.58-1.13,0,1.22-.32,0c-.72-1-.1-2.22-.53-3.25Z" transform="translate(-13.36 -25)"/><path class="cls-3" d="M679.59,103.4l.71.7-.22.32-1.66-1.3c0,.46,0,.87,0,1.28l-.28,0c-.13-1.07-.26-2.14-.4-3.31.85-.13,1.81-.46,2.3.53C680.19,102,679.77,102.7,679.59,103.4Z" transform="translate(-13.36 -25)"/><path class="cls-3" d="M660.51,104.31c.17-.64-.81-1.66.74-1.76,1.32-.09,2.21.45,2.3,1.56s-.68,1.81-2,1.89S660.87,104.86,660.51,104.31Zm.39-1c.53.73-.33,1.87,1,1.95a.88.88,0,0,0,1-1.06C662.8,103,661.86,103.39,660.9,103.26Z" transform="translate(-13.36 -25)"/><path class="cls-3" d="M694.5,103.81c1.84,0,2.46.59,2.25,2.24-.15,1.16-1,1-1.88.81Z" transform="translate(-13.36 -25)"/><path class="cls-3" d="M689.3,106a1.75,1.75,0,0,1-1.71,1.81,2,2,0,0,1-2-1.6,1.8,1.8,0,0,1,1.65-1.91A1.74,1.74,0,0,1,689.3,106Zm-.51.25,0-.5a5.23,5.23,0,0,0-1.5-.74.93.93,0,0,0-1,1.14,1.69,1.69,0,0,0,1.25.95C687.89,107.09,688.34,106.53,688.79,106.22Z" transform="translate(-13.36 -25)"/><path class="cls-3" d="M695.85,70.8c.9-1.1.62-2.86,2.46-3.16l1.79,2.89Z" transform="translate(-13.36 -25)"/><path class="cls-3" d="M667,105.41c-.13-1.11-.26-2.14-.39-3.25,1-.23,2-.48,2.73.33a2.13,2.13,0,0,1,.33,1.87C669.26,105.36,668.19,105.44,667,105.41Zm.38-.73c.93,0,1.76-.13,1.7-1.15,0-.3-1-.88-1.32-.77C666.64,103.11,667.64,104,667.41,104.68Z" transform="translate(-13.36 -25)"/><path class="cls-3" d="M701,67l2.57,2.38c0-.91-.05-1.72-.07-2.53l.34,0a6.64,6.64,0,0,1,.18,3.65l-2.85-2.59c0,1,.06,1.83.09,2.7h-.48l-.15-3.43Z" transform="translate(-13.36 -25)"/><path class="cls-3" d="M674.7,107.47c0-.74,0-1.38-.06-2H675l.39,3.21-.27.24c-.62-.62-1.26-1.24-2-1.94,0,.7,0,1.31,0,1.92l-.31,0-.39-3.27a2.11,2.11,0,0,1,.23-.19C673.31,106.1,674,106.74,674.7,107.47Z" transform="translate(-13.36 -25)"/><path class="cls-3" d="M702.25,73.36a2.43,2.43,0,0,0,.83.35,3.24,3.24,0,0,0,.94-.27,3.17,3.17,0,0,0-.58-.63c-.2-.13-.63,0-.73-.2-.21-.33-.48-1-.36-1.1a3.43,3.43,0,0,1,1.47-.65c.19,0,.46.4.69.62l-.23.21-.31-.06a8.79,8.79,0,0,0-1-.15s-.17.34-.15.35a2.57,2.57,0,0,0,.83.44c.75.11,1.27.5,1.1,1.25a1.61,1.61,0,0,1-1,1c-.64.18-1.37.13-1.63-.73C702.11,73.71,702.17,73.63,702.25,73.36Z" transform="translate(-13.36 -25)"/><path class="cls-3" d="M659.49,106.15l-1.89-2.08c0,.9-.06,1.52-.08,2.15l-.34,0a18.93,18.93,0,0,1-.39-2.89c0-.58.49-.54.85-.11l1.56,1.84c-.05-.8-.09-1.52-.14-2.24l.39,0c.13,1,.25,2.08.38,3.12Z" transform="translate(-13.36 -25)"/><path class="cls-3" d="M680.54,107.44v1.16c-1.14-1.13-.43-2.39-1-3.66a10.2,10.2,0,0,1,2.13.17,1.12,1.12,0,0,1,.33,1A7.23,7.23,0,0,1,680.54,107.44Z" transform="translate(-13.36 -25)"/><path class="cls-3" d="M649.65,109.69l-1.91.23c0,.81,0,.81,1.39,1.11l-1.8.39c-.14-1.14-.26-2.15-.41-3.34l1.9,0-.22.73,1,.94Z" transform="translate(-13.36 -25)"/><path class="cls-3" d="M690.65,103.33c-.14-1.14-.26-2.21-.39-3.26,2-.39,2.87,0,3.08,1.32S693,103,690.65,103.33Zm.5-.41a8.65,8.65,0,0,0,1.59-.94,1,1,0,0,0-.13-1,11,11,0,0,0-2-.7C690.84,101.32,691,101.93,691.15,102.92Z" transform="translate(-13.36 -25)"/><path class="cls-3" d="M688,102c0,.7.28,1.67-1.09,1.73a1.15,1.15,0,0,1-1.37-1.33c0-.81-.48-1.94,1-2.11C687.53,100.14,687.91,100.57,688,102Zm-.26,0-1-1a4.2,4.2,0,0,0-.67,1.17c-.11.51,0,1.16.76,1C687.15,103,687.36,102.44,687.73,101.94Z" transform="translate(-13.36 -25)"/><path class="cls-3" d="M701.47,101.4c-.57-.52-1.9-.47-1.49-1.71a1.42,1.42,0,0,1,1.13-.61c.33,0,.64.47,1,.73-.07.1-.14.2-.2.3l-1.29-.21-.27.27c1.15.2,2.18.51,1.68,1.84a.91.91,0,0,1-.74.46,7,7,0,0,1-1.36-.46c0-.11.07-.22.1-.33l1.42.13Z" transform="translate(-13.36 -25)"/><path class="cls-3" d="M695.2,99.42c.67,1.2,1.24,2.22,1.82,3.24-1.12-.75-2.18-1.39-3.11.36A8,8,0,0,1,695.2,99.42Z" transform="translate(-13.36 -25)"/><path class="cls-3" d="M670.24,107l1.29.12.13.3-1.26.45c0,.1-.09.19-.13.28l1.82.7-2.06.25c-.12-1-.24-2.06-.38-3.2a8.51,8.51,0,0,1,1.26-.14c.21,0,.42.18.63.28a3,3,0,0,1-.6.47,2.21,2.21,0,0,1-.69.1C670.25,106.76,670.24,106.89,670.24,107Z" transform="translate(-13.36 -25)"/><path class="cls-3" d="M682.79,72.17l1.36-3.3.19.06c-.07.51-.15,1-.23,1.58l1.1.12c0-.33,0-.58,0-.84l.26-.12c.45.68.89,1.37,1.41,2.15-1,.26-1.15-1.39-2.15-.75C684.17,71.46,683.52,71.77,682.79,72.17Z" transform="translate(-13.36 -25)"/><path class="cls-3" d="M661.88,108.39c.23.89.09,1.6-1.07,1.73s-1.29-.73-1.39-1.58c-.12-1.06.31-1.74,1.21-1.8C661.78,106.66,661.82,107.53,661.88,108.39Zm-2.35.15,1.34,1a3.85,3.85,0,0,0,.54-1.17c.05-.57-.14-1.23-.93-1C660.17,107.48,660,108,659.53,108.54Z" transform="translate(-13.36 -25)"/><path class="cls-3" d="M666.11,105.37l-1.8.22c-.13-1.06-.25-2-.39-3.23l2-.1c0,.12,0,.24.05.36l-1.39.63.09.28,1.29.12,0,.33a2.56,2.56,0,0,0-.7.17,3.18,3.18,0,0,0-.61.5,3.87,3.87,0,0,0,.68.33,3.38,3.38,0,0,0,.71,0C666.09,105.13,666.1,105.25,666.11,105.37Z" transform="translate(-13.36 -25)"/><path class="cls-3" d="M689.68,106.83a10.66,10.66,0,0,0,.2-1.24c0-.47,0-1-.07-1.42l.33-.1c.13.41.25.82.4,1.31l1.29.07c0-.53,0-1,0-1.43h.24c.13,1,.25,2.09.38,3.13l-.29.07-.29-1.25-1.34.16c0,.4,0,.83-.07,1.5-.38-.36-.6-.58-.82-.8Z" transform="translate(-13.36 -25)"/><path class="cls-3" d="M701.27,106.44c0-.1-.14-.2-.14-.3-.07-.93-.12-1.87-.19-2.93h1.89l0,.28-1.37.63.15.37,1.21,0c.31,1.09-1.95-.12-1.09,1.39L703,106c0,.09,0,.18,0,.27Z" transform="translate(-13.36 -25)"/><path class="cls-3" d="M682.28,71.63c-.82.89-2.24,1.33-3.06.75a2.33,2.33,0,0,1-1-1.57c0-1,.81-1.55,1.84-1.72-.61.63-1.69,1-1.16,2.18C679.19,71.84,679.39,71.84,682.28,71.63Z" transform="translate(-13.36 -25)"/><path class="cls-3" d="M682.53,102.89c.66-.25,1.25,1.24,1.73,0,.06-.15-.47-.53-.82-.9l.69-.83-1.46.34-.15-.36c.41-.16.84-.49,1.22-.44s.47.58.66.92c.1.18.07.43.17.61.45.76.35,1.35-.52,1.69C683.33,104.18,682.88,103.9,682.53,102.89Z" transform="translate(-13.36 -25)"/><path class="cls-3" d="M662.42,106.46c.38.39.75.79,1.1,1.16l.93-1.37.32.17c-.33,1.13-.65,2.26-1,3.5-.56-1.13-1.08-2.2-1.6-3.26Z" transform="translate(-13.36 -25)"/><path class="cls-3" d="M698.24,100.77l1-1.56.21.17c-.36,1.09-.72,2.18-1,3.17L697,99.67l.23-.21Z" transform="translate(-13.36 -25)"/><path class="cls-3" d="M676.67,108.6c-.21-1-.41-2-.63-3.12l1.21-.15-.25,3.32Z" transform="translate(-13.36 -25)"/><path class="cls-3" d="M650.37,103.74v0a14.33,14.33,0,0,0-1.29,1.17,21.26,21.26,0,0,0-1.28,1.79C648.27,104.09,648.63,103.7,650.37,103.74Z" transform="translate(-13.36 -25)"/><path class="cls-3" d="M694.64,67.91c-.35,1.12-.7,2.24-1.06,3.36l-.33,0-1.31-2.5.17-.12,1.19,1.62c.41-.91.78-1.71,1.14-2.52Z" transform="translate(-13.36 -25)"/><path class="cls-3" d="M693.7,73.84l1.15.19c0-.77,0-1.55,0-2.33l.24,0c.13,1.11.26,2.21.4,3.31l-.25.24-1.48-1.42Z" transform="translate(-13.36 -25)"/><path class="cls-3" d="M686.59,68.38,689,70c0,.47-.08,1-.14,1.79Z" transform="translate(-13.36 -25)"/><path class="cls-3" d="M657.11,107.23c.81.9-.22,2.71,2,2.63,0,.11-.07.22-.11.33l-1.51.3C657.36,109.33,657.24,108.28,657.11,107.23Z" transform="translate(-13.36 -25)"/><path class="cls-3" d="M699.66,106.71c-1-.9.33-2.51-1.25-3.13l1.77-.21C698.88,104.33,700.18,105.63,699.66,106.71Z" transform="translate(-13.36 -25)"/><path class="cls-3" d="M682.71,74.78c-.74,0-1.46,0-1.65-.89a1,1,0,0,1,.48-.84c.58-.22,1.28-.43,1.6.39l-1.61.2Z" transform="translate(-13.36 -25)"/><path class="cls-3" d="M679,73.2c.14,1.19.29,2.38.43,3.57l-.3,0c-.15-1.19-.29-2.38-.43-3.58Z" transform="translate(-13.36 -25)"/><path class="cls-3" d="M697.37,66.56l-6.57.8s0-.1,0-.14l6.57-.8S697.36,66.52,697.37,66.56Z" transform="translate(-13.36 -25)"/><path class="cls-3" d="M693.66,107c-.14-1.08-.27-2.15-.4-3.23l.25,0c.13,1.08.27,2.17.4,3.26Z" transform="translate(-13.36 -25)"/><path class="cls-3" d="M697.54,106.73l-.15-3.15.42,0c.07,1.06.14,2.13.22,3.19Z" transform="translate(-13.36 -25)"/><path class="cls-3" d="M695.12,68l.36,3-.41,0c-.06-1-.13-2-.19-3Z" transform="translate(-13.36 -25)"/><path class="cls-3" d="M685.28,76.08c-.13-1.09-.26-2.19-.4-3.29l.23,0c.13,1.09.27,2.19.4,3.28Z" transform="translate(-13.36 -25)"/><path class="cls-3" d="M693.72,73.81l-1.18-1.14c-.11.25-.18.43-.37.86-.08-.67-.13-1.11-.19-1.55.87.45,1.74.78,1.73,1.86C693.7,73.84,693.72,73.81,693.72,73.81Z" transform="translate(-13.36 -25)"/><path class="cls-3" d="M662.65,89.93c0-.81,0-1.61,0-2.42l.54-.07.63,3.28h.45c0-1.12,0-2.25.07-3.7.33.46.53.62.55.79.11,1,.21,2,.23,3s-.43,1.35-1.4,1.22c-.19,0-.45-.15-.55-.07-1,.77-1.32,0-1.66-1l-1,1.57c-.15-.39-.32-.61-.3-.8.1-1.09.2-2.18.4-3.24a3.68,3.68,0,0,1,.61-1.06,8.09,8.09,0,0,1,.56,1c.21.52.36,1.06.53,1.59Z" transform="translate(-13.36 -25)"/><path class="cls-3" d="M677.89,87.31l-1-.4-.35,1c1.36.1,1.94.86,1.79,2-.06.45-.57.85-.88,1.27-.4-.31-1.06-.55-1.15-.94a9.53,9.53,0,0,1-.21-2.77,1.29,1.29,0,0,1,.75-.94c.35-.09.8.23,1.22.37Z" transform="translate(-13.36 -25)"/><path class="cls-3" d="M667.62,88.54,666.5,88a3.63,3.63,0,0,0-.48,1.19c0,.77,0,1.61,1,2,.16-.31.3-.6.48-1l-1-.41c0-.12,0-.24,0-.37l1.4,0a6.3,6.3,0,0,1-.51,1.94c-.12.19-1.45,0-1.49-.2a12.35,12.35,0,0,1-.31-3.37c0-.26,1-.72,1.39-.65A.89.89,0,0,1,667.62,88.54Z" transform="translate(-13.36 -25)"/><path class="cls-3" d="M689.22,88a6.34,6.34,0,0,1-.1,1.69c-.11.34-.54.8-.84.82a1.22,1.22,0,0,1-.93-.72,13.31,13.31,0,0,1-.2-3,1.2,1.2,0,0,1,.78-.88,1.37,1.37,0,0,1,1,.71A4.87,4.87,0,0,1,689.22,88Zm-1-1.74c-.76.69-.9,3.21-.27,3.65a.73.73,0,0,0,.66-.19A5,5,0,0,0,688.24,86.25Z" transform="translate(-13.36 -25)"/><path class="cls-3" d="M685.6,88.21a7.93,7.93,0,0,1-.09,1.71c-.09.33-.47.82-.74.82s-1-.33-1-.6a23.06,23.06,0,0,1-.19-3.43c0-.2.4-.57.59-.55a1.29,1.29,0,0,1,.9.49A7.6,7.6,0,0,1,685.6,88.21Zm-1-1.59a2.69,2.69,0,0,0,.19,3.76A5.06,5.06,0,0,0,684.57,86.62Z" transform="translate(-13.36 -25)"/><path class="cls-3" d="M681.9,90.48l1.54.07a1.09,1.09,0,0,1,0,.18l-2,.24c.36-.89.7-1.64,1-2.42a15.72,15.72,0,0,0,.33-1.66l-.45-.15-.86,1.15c-.12-.86,0-1.5.8-1.52.29,0,.79.63.87,1a3,3,0,0,1-.35,1.46C682.55,89.36,682.24,89.83,681.9,90.48Z" transform="translate(-13.36 -25)"/><path class="cls-3" d="M686.54,85.77c.11,1.84.2,3.38.29,4.91l-.31,0c-.65-1.26.23-2.9-.93-4.11Z" transform="translate(-13.36 -25)"/><path class="cls-3" d="M674.36,89.33c-1,.12-1.64.23-2.29.26-.19,0-.38-.25-.57-.38.16-.18.31-.5.47-.49C672.68,88.72,673.53,88.21,674.36,89.33Z" transform="translate(-13.36 -25)"/></g></svg>